<svg width="73" height="59" viewBox="0 0 73 59" fill="none" xmlns="http://www.w3.org/2000/svg">
<path d="M2.63855 4.0411H73V8.89041H2.63855V4.0411Z" fill="#1F1D29"/>
<path d="M2.63855 8.89041H73V13.7397H2.63855V8.89041Z" fill="#1F1D29"/>
<path d="M2.63855 13.7397H73V18.589H2.63855V13.7397Z" fill="#1F1D29"/>
<path d="M2.63855 18.589H73V24.2466H2.63855V18.589Z" fill="#1F1D29"/>
<path d="M63.3253 24.2466H73V29.0959H63.3253V24.2466Z" fill="#1F1D29"/>
<path d="M2.63854 24.2466H58.0482V29.0959H2.63854V24.2466Z" fill="#1F1D29"/>
<path d="M63.3253 29.0959H73V33.9452H63.3253V29.0959Z" fill="#1F1D29"/>
<path d="M2.63854 29.0959H58.0482V33.9452H2.63854V29.0959Z" fill="#1F1D29"/>
<path d="M63.3253 33.9452H73V38.7945H63.3253V33.9452Z" fill="#1F1D29"/>
<path d="M2.63854 33.9452H58.0482V38.7945H2.63854V33.9452Z" fill="#1F1D29"/>
<path d="M63.3253 38.7945H73V44.4521H63.3253V38.7945Z" fill="#1F1D29"/>
<path d="M2.63854 38.7945H58.0482V44.4521H2.63854V38.7945Z" fill="#1F1D29"/>
<path d="M63.3253 44.4521H73V48.4932H63.3253V44.4521Z" fill="#1F1D29"/>
<path d="M2.63854 44.4521H58.0482V48.4932H2.63854V44.4521Z" fill="#1F1D29"/>
<path d="M63.3253 48.4932H73V54.1507H63.3253V48.4932Z" fill="#1F1D29"/>
<path d="M2.63854 48.4932H58.0482V54.1507H2.63854V48.4932Z" fill="#1F1D29"/>
<path d="M63.3253 54.1507H73V59H63.3253V54.1507Z" fill="#1F1D29"/>
<path d="M2.63854 54.1507H58.0482V59H2.63854V54.1507Z" fill="#1F1D29"/>
<path d="M26.3855 0H48.3735V4.0411H26.3855V0Z" fill="#027C92"/>
<path d="M-7.62939e-06 0H21.9879V4.0411H-7.62939e-06V0Z" fill="#027C92"/>
<path d="M44.8554 4.0411H48.3735V8.08219H44.8554V4.0411Z" fill="#027C92"/>
<path d="M36.9398 4.0411H44.8554V8.08219H36.9398V4.0411Z" fill="white"/>
<path d="M29.9036 4.0411H36.9398V8.08219H29.9036V4.0411Z" fill="black"/>
<path d="M26.3855 4.0411H29.9036V8.08219H26.3855V4.0411Z" fill="#027C92"/>
<path d="M18.4699 4.0411H21.9879V8.08219H18.4699V4.0411Z" fill="#027C92"/>
<path d="M10.5542 4.0411H18.4699V8.08219H10.5542V4.0411Z" fill="white"/>
<path d="M3.51805 4.0411H10.5542V8.08219H3.51805V4.0411Z" fill="black"/>
<path d="M-5.72205e-06 4.0411H3.51807V8.08219H-5.72205e-06V4.0411Z" fill="#027C92"/>
<path d="M44.8554 8.08219H59.8073V12.1233H44.8554V8.08219Z" fill="#027C92"/>
<path d="M36.9398 8.08219H44.8554V12.1233H36.9398V8.08219Z" fill="white"/>
<path d="M29.9036 8.08219H36.9398V12.1233H29.9036V8.08219Z" fill="black"/>
<path d="M18.4699 8.08219H29.9036V12.1233H18.4699V8.08219Z" fill="#027C92"/>
<path d="M10.5542 8.08219H18.4699V12.1233H10.5542V8.08219Z" fill="white"/>
<path d="M3.51805 8.08219H10.5542V12.1233H3.51805V8.08219Z" fill="black"/>
<path d="M-5.72205e-06 8.08219H3.51807V12.1233H-5.72205e-06V8.08219Z" fill="#027C92"/>
<path d="M55.4097 12.1233H59.8073V16.9726H55.4097V12.1233Z" fill="#027C92"/>
<path d="M44.8554 12.1233H48.3735V16.9726H44.8554V12.1233Z" fill="#027C92"/>
<path d="M36.9398 12.1233H44.8554V16.9726H36.9398V12.1233Z" fill="white"/>
<path d="M29.9036 12.1233H36.9398V16.9726H29.9036V12.1233Z" fill="black"/>
<path d="M26.3855 12.1233H29.9036V16.9726H26.3855V12.1233Z" fill="#027C92"/>
<path d="M18.4699 12.1233H21.9879V16.9726H18.4699V12.1233Z" fill="#027C92"/>
<path d="M10.5542 12.1233H18.4699V16.9726H10.5542V12.1233Z" fill="white"/>
<path d="M3.51805 12.1233H10.5542V16.9726H3.51805V12.1233Z" fill="black"/>
<path d="M-5.72205e-06 12.1233H3.51807V16.9726H-5.72205e-06V12.1233Z" fill="#027C92"/>
<path d="M55.4097 16.9726H59.8073V21.0137H55.4097V16.9726Z" fill="#027C92"/>
<path d="M44.8554 16.9726H48.3735V21.0137H44.8554V16.9726Z" fill="#027C92"/>
<path d="M36.9398 16.9726H44.8554V21.0137H36.9398V16.9726Z" fill="white"/>
<path d="M29.9036 16.9726H36.9398V21.0137H29.9036V16.9726Z" fill="black"/>
<path d="M26.3855 16.9726H29.9036V21.0137H26.3855V16.9726Z" fill="#027C92"/>
<path d="M18.4699 16.9726H21.9879V21.0137H18.4699V16.9726Z" fill="#027C92"/>
<path d="M10.5542 16.9726H18.4699V21.0137H10.5542V16.9726Z" fill="white"/>
<path d="M3.51805 16.9726H10.5542V21.0137H3.51805V16.9726Z" fill="black"/>
<path d="M-5.72205e-06 16.9726H3.51807V21.0137H-5.72205e-06V16.9726Z" fill="#027C92"/>
<path d="M26.3855 21.0137H48.3735V25.0548H26.3855V21.0137Z" fill="#027C92"/>
<path d="M-7.62939e-06 21.0137H21.9879V25.0548H-7.62939e-06V21.0137Z" fill="#027C92"/>
</svg>
