<svg width="96" height="96" viewBox="0 0 96 96" fill="#000" xmlns="http://www.w3.org/2000/svg">
<path d="M39.9115 2.42192C44.9518 -0.333584 51.0482 -0.333584 56.0885 2.42192V2.42192C58.4522 3.71412 61.0911 4.4212 63.7842 4.48396V4.48396C69.527 4.61779 74.8066 7.66598 77.7939 12.5725V12.5725C79.1948 14.8734 81.1266 16.8052 83.4275 18.2061V18.2061C88.334 21.1934 91.3822 26.473 91.516 32.2158V32.2158C91.5788 34.9089 92.2859 37.5478 93.5781 39.9115V39.9115C96.3336 44.9518 96.3336 51.0482 93.5781 56.0885V56.0885C92.2859 58.4522 91.5788 61.0911 91.516 63.7842V63.7842C91.3822 69.527 88.334 74.8066 83.4275 77.7939V77.7939C81.1266 79.1948 79.1948 81.1266 77.7939 83.4275V83.4275C74.8066 88.334 69.527 91.3822 63.7842 91.516V91.516C61.0911 91.5788 58.4522 92.2859 56.0885 93.5781V93.5781C51.0482 96.3336 44.9518 96.3336 39.9115 93.5781V93.5781C37.5478 92.2859 34.9089 91.5788 32.2158 91.516V91.516C26.473 91.3822 21.1934 88.334 18.2061 83.4275V83.4275C16.8052 81.1266 14.8734 79.1948 12.5725 77.7939V77.7939C7.66598 74.8066 4.61779 69.527 4.48396 63.7842V63.7842C4.4212 61.0911 3.71412 58.4522 2.42192 56.0885V56.0885C-0.333584 51.0482 -0.333584 44.9518 2.42192 39.9115V39.9115C3.71412 37.5478 4.4212 34.9089 4.48396 32.2158V32.2158C4.61779 26.473 7.66598 21.1934 12.5725 18.2061V18.2061C14.8734 16.8052 16.8052 14.8734 18.2061 12.5725V12.5725C21.1934 7.66598 26.473 4.61779 32.2158 4.48396V4.48396C34.9089 4.4212 37.5478 3.71412 39.9115 2.42192V2.42192Z" fill="#000"/>
</svg>
